. 
 
http://www.torrenting.com          :     Once & For all ;)


               www . Torrenting . Com 

(((((((((((((= Enjoy No RAR releases =))))))))))))))))))))


...................................NFO:....................................

.http://www.imdb.com/title/tt1967688/

General
Complete name                  : Desperately.Seeking.Santa.2011.iNTERNAL.HDTV.XviD-SarjP\Desperately.Seeking.Santa.2011.iNTERNAL.HDTV.XviD-SarjP.avi
Format                         : AVI
Format/Info                    : Audio Video Interleave
File size                      : 1.37 GiB
Duration                       : 1h 26mn
Overall bit rate               : 2 273 Kbps
Writing application            : VirtualDubMod 1.5.4.1 (build 2178/release)
Writing library                : VirtualDubMod build 2178/release

Video
ID                             : 0
Format                         : MPEG-4 Visual
Format profile                 : Advanced Simple@L5
Format settings, BVOP          : 1
Format settings, QPel          : No
Format settings, GMC           : No warppoints
Format settings, Matrix        : Custom
Codec ID                       : XVID
Codec ID/Hint                  : XviD
Duration                       : 1h 26mn
Bit rate                       : 1 882 Kbps
Width                          : 896 pixels
Height                         : 512 pixels
Display aspect ratio           : 16:9
Frame rate                     : 23.976 fps
Color space                    : YUV
Chroma subsampling             : 4:2:0
Bit depth                      : 8 bits
Scan type                      : Progressive
Compression mode               : Lossy
Bits/(Pixel*Frame)             : 0.171
Stream size                    : 1.13 GiB (83%)
Writing library                : XviD 64

Audio
ID                             : 1
Format                         : AC-3
Format/Info                    : Audio Coding 3
Mode extension                 : CM (complete main)
Codec ID                       : 2000
Duration                       : 1h 26mn
Bit rate mode                  : Constant
Bit rate                       : 384 Kbps
Channel(s)                     : 6 channels
Channel positions              : Front: L C R, Side: L R, LFE
Sampling rate                  : 48.0 KHz
Bit depth                      : 16 bits
Compression mode               : Lossy
Delay relative to video        : 31ms
Stream size                    : 237 MiB (17%)
Alignment                      : Split accross interleaves
Interleave, duration           : 96 ms (2.30 video frames)
Interleave, preload duration   : 96 ms